<svg id="Capa_1" data-name="Capa 1" xmlns="http://www.w3.org/2000/svg" viewBox="0 0 300 512.4"><defs><style>.cls-1{fill:#4dbaf6;}.cls-2{fill:#ffc66c;}</style></defs><title>bus-marker</title><polyline class="cls-1" points="126 502.4 126 350.4 174 350.4 174 502.4"/><path class="cls-2" d="M348,10H164a48,48,0,0,0-48,48V302a48,48,0,0,0,48,48H348a48,48,0,0,0,48-48V58A48,48,0,0,0,348,10Z" transform="translate(-106 0.4)"/><path d="M232,406a10,10,0,1,0,7.07,2.93A10.08,10.08,0,0,0,232,406Z" transform="translate(-106 0.4)"/><path d="M232,445a10,10,0,0,0-10,10v47a10,10,0,0,0,20,0V455A10,10,0,0,0,232,445Z" transform="translate(-106 0.4)"/><path d="M348,0H164a58.07,58.07,0,0,0-58,58V302a58.07,58.07,0,0,0,58,58h58v17a10,10,0,0,0,20,0V360h28V502a10,10,0,0,0,20,0V360h58a58.07,58.07,0,0,0,58-58V218a10,10,0,0,0-20,0v84a38,38,0,0,1-38,38H164a38,38,0,0,1-38-38V58a38,38,0,0,1,38-38H348a38,38,0,0,1,38,38v85.73a10,10,0,1,0,20,0V58A58.07,58.07,0,0,0,348,0Z" transform="translate(-106 0.4)"/><path d="M164-.4H348a58.07,58.07,0,0,1,58,58v244a58.07,58.07,0,0,1-58,58H290v17a10,10,0,0,1-20,0v-17H242v142a10,10,0,0,1-20,0v-142H164a58.07,58.07,0,0,1-58-58v-84a10,10,0,0,1,20,0v84a38,38,0,0,0,38,38H348a38,38,0,0,0,38-38V57.6a38,38,0,0,0-38-38H164a38,38,0,0,0-38,38v85.73a10,10,0,1,1-20,0V57.6A58.07,58.07,0,0,1,164-.4Z" transform="translate(-106 0.4)"/><path d="M396,173.07a10,10,0,1,0,7.07,2.93A10.08,10.08,0,0,0,396,173.07Z" transform="translate(-106 0.4)"/><path d="M336.28,229.86H348a10,10,0,0,0,10-10v-81a28.74,28.74,0,0,0-28.71-28.71H182.71A28.74,28.74,0,0,0,154,138.85v81a10,10,0,0,0,10,10h11.39a30,30,0,0,0,56.56,0h47.77a30,30,0,0,0,56.56,0Zm0-20a30,30,0,0,0-56.56,0H232a30,30,0,0,0-56.56,0H174V180H338v29.86ZM237.75,160V130.14h36.5V160ZM338,138.85V160H294.25V130.14h35A8.72,8.72,0,0,1,338,138.85Zm-155.29-8.71h35V160H174V138.85A8.72,8.72,0,0,1,182.71,130.14Zm21,99.72a10,10,0,1,1,9.93-11.12,10.36,10.36,0,0,0-.07,1.12,10.2,10.2,0,0,0,.07,1.12A10,10,0,0,1,203.67,229.86Zm94.33-10a10,10,0,1,1,10,10A10,10,0,0,1,298,219.86Z" transform="translate(-106 0.4)"/></svg>