<svg id="Capa_1" data-name="Capa 1" xmlns="http://www.w3.org/2000/svg" viewBox="0 0 11.71 20"><defs><style>.cls-1{fill:#ffc66c;}</style></defs><title>bus-marker</title><path class="cls-1" d="M153.59,246.61h-7.18a1.86,1.86,0,0,0-1.87,1.87V258a1.87,1.87,0,0,0,1.87,1.88h7.18a1.87,1.87,0,0,0,1.87-1.88v-9.52A1.86,1.86,0,0,0,153.59,246.61Z" transform="translate(-144.15 -246.2)"/><path d="M149.06,262.06a.4.4,0,0,0-.39.39.39.39,0,0,0,.39.39.39.39,0,0,0,.28-.66A.36.36,0,0,0,149.06,262.06Z" transform="translate(-144.15 -246.2)"/><path d="M153.59,246.22h-7.18a2.26,2.26,0,0,0-2.26,2.26V258a2.27,2.27,0,0,0,2.26,2.27h2.26v.66a.39.39,0,0,0,.39.39.38.38,0,0,0,.39-.39v-.66h1.1v5.54a.38.38,0,0,0,.39.39.39.39,0,0,0,.39-.39v-5.54h2.26a2.27,2.27,0,0,0,2.26-2.27v-3.28a.39.39,0,0,0-.39-.39.4.4,0,0,0-.39.39V258a1.49,1.49,0,0,1-1.48,1.49h-7.18a1.49,1.49,0,0,1-1.48-1.49h0v-9.52a1.48,1.48,0,0,1,1.48-1.48h7.18a1.48,1.48,0,0,1,1.48,1.48v3.35a.4.4,0,0,0,.39.39.39.39,0,0,0,.39-.39v-3.35A2.26,2.26,0,0,0,153.59,246.22Z" transform="translate(-144.15 -246.2)"/><path d="M146.41,246.2h7.18a2.26,2.26,0,0,1,2.26,2.26V258a2.26,2.26,0,0,1-2.26,2.26h-2.26v.67a.4.4,0,0,1-.39.39.39.39,0,0,1-.39-.39v-.67h-1.1v5.54a.38.38,0,0,1-.39.39.39.39,0,0,1-.39-.39v-5.54h-2.26a2.26,2.26,0,0,1-2.26-2.26v-3.28a.38.38,0,0,1,.39-.39.39.39,0,0,1,.39.39V258a1.48,1.48,0,0,0,1.48,1.48h7.18a1.48,1.48,0,0,0,1.48-1.48v-9.53a1.48,1.48,0,0,0-1.48-1.48h-7.18a1.48,1.48,0,0,0-1.48,1.48v3.35a.39.39,0,0,1-.39.39.38.38,0,0,1-.39-.39v-3.35A2.26,2.26,0,0,1,146.41,246.2Z" transform="translate(-144.15 -246.2)"/><path d="M154.1,253.78a.29.29,0,1,0,.29.29.27.27,0,0,0-.29-.29Z" transform="translate(-144.15 -246.2)"/><path d="M153.13,255.19h.46a.39.39,0,0,0,.39-.39v-3.16a1.13,1.13,0,0,0-1.12-1.13h-5.72a1.13,1.13,0,0,0-1.12,1.13v3.16a.39.39,0,0,0,.39.39h.44a1.17,1.17,0,0,0,1.5.71,1.19,1.19,0,0,0,.71-.71h1.87a1.17,1.17,0,0,0,2.2,0Zm0-.78a1.17,1.17,0,0,0-1.49-.72,1.15,1.15,0,0,0-.71.72h-1.87a1.17,1.17,0,0,0-1.49-.72,1.15,1.15,0,0,0-.71.72h-.06v-1.17h6.4v1.17Zm-3.84-1.95V251.3h1.42v1.16Zm3.91-.82v.82h-1.71V251.3h1.37a.33.33,0,0,1,.34.33Zm-6.06-.34h1.37v1.16H146.8v-.82A.34.34,0,0,1,147.14,251.3Zm.82,3.89a.39.39,0,0,1-.39-.39.38.38,0,0,1,.39-.39.4.4,0,0,1,.39.34.09.09,0,0,0,0,.05.06.06,0,0,0,0,0,.4.4,0,0,1-.39.35Zm3.68-.39a.39.39,0,0,1,.39-.39.38.38,0,0,1,.39.39.39.39,0,0,1-.39.39.4.4,0,0,1-.39-.39Z" transform="translate(-144.15 -246.2)"/></svg>