<svg id="Layer_1" data-name="Layer 1" xmlns="http://www.w3.org/2000/svg" xmlns:xlink="http://www.w3.org/1999/xlink" viewBox="0 0 372.12 384"><defs><style>.cls-1{fill:none;}.cls-2{fill:#2e7d32;}.cls-3{fill:#4caf50;}.cls-4{fill:#2296f3;}.cls-5{fill:#1566c0;}.cls-6{fill:#fdd834;}.cls-7{fill:#ffeb3a;}.cls-8{fill:#c52828;}.cls-9{fill:#f44335;}.cls-10{fill:#607d8b;}.cls-11{clip-path:url(#clip-path);}</style><clipPath id="clip-path" transform="translate(-119.94 -204)"><rect class="cls-1" x="119" y="204" width="374" height="385"/></clipPath></defs><title>bus-traker</title><path class="cls-2" d="M483.74,570.79a19.11,19.11,0,0,1-17.28,10.81H145.56A19.2,19.2,0,0,1,127,557.35l17.22-63,9.21-33.86,20.74-75.9a19.2,19.2,0,0,1,18.49-14.15h226.7a19.21,19.21,0,0,1,18.49,14.15L446,414.31,457.11,455,485,557.35a19,19,0,0,1-1.28,13.44Zm0,0" transform="translate(-119.94 -204)"/><path class="cls-3" d="M465.88,564.84a20.78,20.78,0,0,1-1.85,5.95,19.11,19.11,0,0,1-17.28,10.81H145.56A19.2,19.2,0,0,1,127,557.35l17.22-63,9.21-33.86,20.74-75.9a19.2,19.2,0,0,1,18.49-14.15h207a19.21,19.21,0,0,1,18.5,14.15l8.13,29.76,4.86,17.79L437.4,455l4.87,17.86,23,84.48a19.91,19.91,0,0,1,.58,7.49Zm0,0" transform="translate(-119.94 -204)"/><path class="cls-4" d="M226.59,521.83,176.73,581.6H145.56A19.2,19.2,0,0,1,127,557.35l17.22-63Zm0,0" transform="translate(-119.94 -204)"/><path class="cls-5" d="M483.74,570.79,468,565.54l-46.85-15.68h-.06l-33.66-11.2L444,470.75,457.11,455,485,557.35a19,19,0,0,1-1.28,13.44Zm0,0" transform="translate(-119.94 -204)"/><path class="cls-4" d="M468,565.54l-46.85-15.68h-.06l-33.66-11.2L444,470.75l23.61,86.6a18.72,18.72,0,0,1,.38,8.19Zm0,0" transform="translate(-119.94 -204)"/><path class="cls-6" d="M483.74,570.79a19.11,19.11,0,0,1-17.28,10.81h-61l-77.37-25.85L261.78,533.6l-3.84,4.61L221.78,581.6H176.73l49.86-59.77-82.37-27.52L152,465.89l1.47-5.44,145.86,48.77,5.38,1.79,33.6,11.26,13.88,4.61,79-94.78,1.47-1.79,13.38-16L457.11,455l-14.84,17.86-54.85,65.79,33.66,11.2h.06l44.74,15Zm0,0" transform="translate(-119.94 -204)"/><path class="cls-7" d="M466,570.79a19.1,19.1,0,0,1-17.28,10.81h-61l-77.38-25.85-52.42-17.54-13.88-4.61-40,48H176.73l49.86-59.77-82.37-27.52L152,465.89l129.6,43.33,5.38,1.79,47.49,15.87,3.84-4.61,13.88,4.61,79-94.78,1.47-1.79,6.79,24.7-14.85,17.86-54.85,65.79,33.67,11.2h.06l44.73,15Zm0,0" transform="translate(-119.94 -204)"/><path class="cls-8" d="M408.41,312.81c0,77.75-67.14,163.9-92.67,193.85a12.88,12.88,0,0,1-19.33.13l-.19-.19C269.4,475.11,197,382,204.12,301.54a101.45,101.45,0,0,1,92-90.69h.13a99.63,99.63,0,0,1,11.46-.45A102.41,102.41,0,0,1,408.41,312.81Zm0,0" transform="translate(-119.94 -204)"/><path class="cls-9" d="M389.21,312.81c0,77.75-67.14,163.9-92.67,193.85l-.13.13-.19-.19C269.4,475.11,197,382,204.12,301.54a101.45,101.45,0,0,1,92-90.69h.13a102.39,102.39,0,0,1,92.93,102Zm0,0" transform="translate(-119.94 -204)"/><path class="cls-6" d="M381.66,337.25a13.39,13.39,0,0,1-12,7.56H242.27a6.54,6.54,0,0,1-6.66-6.41v-32H376.92c.71,3,1.41,5.83,2.12,8.77,1.59,6.59,5.75,15.49,2.62,22.08Zm0,0" transform="translate(-119.94 -204)"/><path class="cls-7" d="M362.46,337.25a13.39,13.39,0,0,1-12,7.56H242.27a6.54,6.54,0,0,1-6.66-6.41v-32H357.72c.71,3,1.41,5.83,2.12,8.77,1.59,6.59,5.75,15.49,2.62,22.08Zm0,0" transform="translate(-119.94 -204)"/><path class="cls-5" d="M376.92,306.4H331.61v-32h26.94a12.74,12.74,0,0,1,11.4,6.66,35.82,35.82,0,0,1,3,8.83c1.28,5.5,2.63,11,4,16.51Zm0,0" transform="translate(-119.94 -204)"/><path class="cls-4" d="M357.72,306.4H312.41v-32h26.94a12.74,12.74,0,0,1,11.4,6.66,35.82,35.82,0,0,1,3,8.83c1.29,5.5,2.63,11,4,16.51Zm0,0" transform="translate(-119.94 -204)"/><rect class="cls-4" x="179.67" y="70.4" width="32" height="32"/><path class="cls-4" d="M267.61,274.4v32h-32V280.81a6.52,6.52,0,0,1,6.66-6.41Zm0,0" transform="translate(-119.94 -204)"/><rect class="cls-4" x="147.67" y="70.4" width="32" height="32"/><path class="cls-10" d="M293.21,348a16,16,0,1,1-16-16,16,16,0,0,1,16,16Zm0,0" transform="translate(-119.94 -204)"/><g class="cls-11"><path class="cls-10" d="M357.21,348a16,16,0,1,1-16-16,16,16,0,0,1,16,16Zm0,0" transform="translate(-119.94 -204)"/><path d="M488.72,574.76a5.8,5.8,0,0,0,.54-.9,25.36,25.36,0,0,0,1.92-18.2l-47.13-172.8A25.65,25.65,0,0,0,419.35,364H406.71a180.73,180.73,0,0,0,8.1-51.19A109.3,109.3,0,0,0,307.86,204H306a108,108,0,0,0-108.29,97,170.34,170.34,0,0,0,7.55,63h-12.6A25.65,25.65,0,0,0,168,382.86l-20.6,75.52v.05l-26.54,97.23A25.61,25.61,0,0,0,145.55,588H466.47a23.87,23.87,0,0,0,22.25-13.24Zm-9.49-12.23-56.05-18.74-.47-.13-24.37-8.14,55.81-67L478.81,559a12.83,12.83,0,0,1,.42,3.49ZM419.35,376.8a12.79,12.79,0,0,1,12.34,9.44l7.24,26.53L350,519.43l-28.65-9.6c20.94-24.65,60.94-76.44,81.13-133ZM210.47,302.09A95.17,95.17,0,0,1,306,216.81h1.65a96.42,96.42,0,0,1,94.35,96,175.49,175.49,0,0,1-9.82,54.88,5.08,5.08,0,0,0-.28.86c-19.08,56.66-60.4,109.7-81.06,133.93A6.24,6.24,0,0,1,306,504.7l-.15,0-3.24-1.08a6.57,6.57,0,0,1-1.54-1.18c-23-27-97.63-121.31-90.64-200.32Zm-30.14,84.14a12.79,12.79,0,0,1,12.34-9.43h16.79C226.28,424,256.93,467.87,279,495.69L161.22,456.3Zm-45,183.94A12.66,12.66,0,0,1,133.21,559l15.41-56.52,67.06,22.41-42,50.27H145.57a12.69,12.69,0,0,1-10.19-5Zm128.53-29.11,102.2,34.14H235.45ZM406.49,575.2,263.77,527.53h-.09a6.94,6.94,0,0,0-1.51-.19c-.32-.05-.64-.09-1-.11a7.41,7.41,0,0,0-1.14.32,7.17,7.17,0,0,0-1.2.35,7.48,7.48,0,0,0-.71.55,6.8,6.8,0,0,0-1.28,1l-.07.06-38,45.69H190.4l41.1-49.27.06-.13a6.2,6.2,0,0,0,1.09-1.92v-.08a6.27,6.27,0,0,0,.22-1.73c0-.25.09-.5.07-.75a6.58,6.58,0,0,0-.35-1.28,6.86,6.86,0,0,0-.31-1.07,5.3,5.3,0,0,0-.51-.73,6.31,6.31,0,0,0-1-1.28l-.06-.06a5.52,5.52,0,0,0-1-.54,6.62,6.62,0,0,0-1.09-.64L152,490.12l5.86-21.48L297.2,515.22a18.73,18.73,0,0,0,5.67,1.92L350,532.9l.11,0a6.09,6.09,0,0,0,2,.34,6.1,6.1,0,0,0,3-.82,6,6,0,0,0,1.67-1.28c.08-.08.2-.11.28-.21l86-103.12,7,25.66L382.5,534.56a6.28,6.28,0,0,0-.59,1.08,6.15,6.15,0,0,0-.57,1v.08a6.41,6.41,0,0,0-.2,1.69c0,.26-.07.53-.09.79a6.94,6.94,0,0,0,.36,1.28,5.8,5.8,0,0,0,.32,1.1,6.12,6.12,0,0,0,.53.7,6,6,0,0,0,1,1.28l.05.07a6.33,6.33,0,0,0,2,1.13h.05L419.08,556l.45.13,52.88,17.65a12.67,12.67,0,0,1-5.91,1.46Zm0,0" transform="translate(-119.94 -204)"/></g><path d="M319.14,351.2a22.29,22.29,0,0,0,44.16,0h6.34A19.66,19.66,0,0,0,387.46,340a30.45,30.45,0,0,0-1-22.06c-.46-1.5-.9-2.94-1.22-4.28l-1-4.14c-1.71-7-3.41-14-5.12-21.21l-.19-.76a38.93,38.93,0,0,0-3.45-9.66A19.09,19.09,0,0,0,358.55,268H242.27a13,13,0,0,0-13.06,12.81V338.4a12.94,12.94,0,0,0,13.06,12.8h12.87a22.29,22.29,0,0,0,44.16,0Zm22.07,6.4a9.6,9.6,0,1,1,9.6-9.6,9.6,9.6,0,0,1-9.6,9.6ZM306,300V280.81h19.2V300Zm-32,0V280.81h19.2V300Zm-12.8-19.19V300h-19l.09-19.19ZM242,338.4l.11-25.59H350.81a6.41,6.41,0,0,0,0-12.81H338V280.81h20.54a6.31,6.31,0,0,1,5.81,3.37,28.2,28.2,0,0,1,2.19,6.51l.17.64q2.5,10.62,5.12,21.19l1,4.14c.37,1.56.88,3.24,1.42,5a22.34,22.34,0,0,1,1.62,12.88,7,7,0,0,1-6.23,3.84h-8.3a22.27,22.27,0,0,0-40.32,0H297.36a22.27,22.27,0,0,0-40.32,0Zm35.2,19.2a9.6,9.6,0,1,1,9.6-9.6,9.6,9.6,0,0,1-9.6,9.6Zm0,0" transform="translate(-119.94 -204)"/></svg>