<?xml version="1.0" encoding="iso-8859-1"?>
<!-- Generator: Adobe Illustrator 19.0.0, SVG Export Plug-In . SVG Version: 6.00 Build 0)  -->
<svg version="1.1" id="Capa_1" xmlns="http://www.w3.org/2000/svg" xmlns:xlink="http://www.w3.org/1999/xlink" x="0px" y="0px"
	 viewBox="0 0 512 512" style="enable-background:new 0 0 512 512;" xml:space="preserve">
<g>
	<circle style="fill:#666666;" cx="96" cy="332.004" r="32"/>
	<path style="fill:#666666;" d="M424,332.004c0,17.68-14.32,32-32,32s-32-14.32-32-32c0-9.6,4.24-18.16,10.88-24
		c1.92-1.76,4.08-3.2,6.4-4.4c4.4-2.32,9.44-3.6,14.72-3.6C409.68,300.004,424,314.324,424,332.004z"/>
	<circle style="fill:#666666;" cx="160" cy="332.004" r="32"/>
</g>
<path style="fill:#F5BD3A;" d="M448,236.004h-8l-15.36-64l-1.76-9.2c-4.08-13.52-16.56-22.8-30.72-22.8H67.12
	c-15.68,0-29.04,11.28-31.6,26.72l-0.24,5.28l-3.28,56c0,1.6,0,8,0,8v24v72h32c0-17.68,14.32-32,32-32s32,14.32,32,32
	c0-17.68,14.32-32,32-32s32,14.32,32,32h32h32h32h72c0-9.6,4.24-18.16,10.88-24c1.92-1.76,4.08-3.2,6.4-4.4
	c4.4-2.32,9.44-3.6,14.72-3.6c17.68,0,32,14.32,32,32h56v-64C480,250.324,465.68,236.004,448,236.004z"/>
<g>
	<path style="fill:#F9D789;" d="M422.88,170.804c-4.08-13.52-16.56-22.8-30.72-22.8H67.12c-15.68,0-29.04,11.28-31.6,26.72
		l-0.24,5.28h389.36L422.88,170.804z"/>
	<polygon style="fill:#F9D789;" points="224,244.004 224,340.004 256,340.004 288,340.004 288,244.004 288,220.004 256,220.004 
		224,220.004 	"/>
</g>
<path style="fill:#CCCCCC;" d="M160,236.004h64v-24h64v24h88h64l-15.36-64h-71.52H288h-64h-64H96H35.28l-3.28,56c0,1.6,0,8,0,8h64
	H160z"/>
<path style="fill:#FEF7E7;" d="M480,276.004h-32l-32-32h32C465.68,244.004,480,258.324,480,276.004z"/>
<rect x="88.08" y="324.004" width="16" height="16"/>
<rect x="384.08" y="324.004" width="16" height="16"/>
<rect x="152.08" y="324.004" width="16" height="16"/>
<path d="M192,364.004h-8.12c7.752-5.776,13.424-14.192,15.424-24h16.808h16h16h16h16h16h56.808c2,9.808,7.672,18.224,15.424,24H256
	v16h208v-16h-48.12c7.752-5.776,13.416-14.192,15.424-24h56.808v-64v-8l-0.808-8c-3.72-18.232-19.88-32-39.192-32h-1.696
	l-13.832-57.632l-1.728-9.072l-0.2-0.816c-5.152-17.04-20.568-28.488-38.384-28.488H67.232c-19.184,0-35.344,13.4-39.12,32h-0.264
	l-0.08,1.32c-0.008,0.032-0.016,0.064-0.024,0.096l-0.112,2.232l-3.52,60.36v16v96H56.92c2,9.808,7.672,18.224,15.424,24H0v16h192
	V364.004z M216.112,204.004v16v8h-48v-48h48V204.004z M248.112,324.004h-16v-80v-16v-8h16V324.004z M280.112,228.004v16v80h-16v-104
	h16V228.004z M280.112,204.004h-16h-16h-16v-24h48V204.004z M392.112,356.004c-13.232,0-24-10.768-24-24
	c0-6.864,2.976-13.432,8.296-18.112c1.288-1.176,2.848-2.248,4.72-3.208c3.32-1.752,7.12-2.68,10.984-2.68c13.232,0,24,10.768,24,24
	S405.344,356.004,392.112,356.004z M448.112,244.004c10.432,0,19.328,6.688,22.632,16h-19.32l-16-16H448.112z M444.8,276.012h27.312
	v47.992h-40.808c0-0.008-0.008-0.016-0.008-0.024c-0.032-0.144-0.096-0.28-0.128-0.424c-0.496-2.304-1.2-4.52-2.072-6.656
	c-0.312-0.768-0.736-1.472-1.096-2.216c-0.704-1.456-1.432-2.888-2.304-4.248c-0.512-0.792-1.096-1.528-1.664-2.28
	c-0.896-1.192-1.816-2.344-2.832-3.432c-0.672-0.712-1.368-1.376-2.088-2.04c-1.072-0.992-2.192-1.912-3.376-2.784
	c-0.784-0.584-1.568-1.144-2.4-1.664c-1.272-0.8-2.6-1.496-3.96-2.152c-0.848-0.408-1.672-0.84-2.552-1.192
	c-1.536-0.616-3.144-1.064-4.768-1.48c-0.792-0.208-1.544-0.48-2.36-0.64c-2.448-0.48-4.976-0.768-7.584-0.768
	c-6.464,0-12.832,1.56-18.384,4.496c-3.064,1.576-5.808,3.472-8.016,5.504c-1.472,1.296-2.8,2.72-4.048,4.2
	c-0.296,0.344-0.584,0.696-0.864,1.048c-1.192,1.504-2.296,3.056-3.256,4.704c-0.072,0.12-0.12,0.24-0.184,0.36
	c-0.888,1.56-1.64,3.176-2.304,4.84c-0.168,0.416-0.336,0.832-0.496,1.256c-0.648,1.768-1.192,3.576-1.584,5.424
	c-0.016,0.064-0.04,0.12-0.048,0.176h-56.816v-80h74.368h16.992H412.8L444.8,276.012z M296.112,228.004v-8v-16v-24h51.48l8.584,24
	l8.576,24H296.112z M429.96,228.004h-10.536H396.8h-15.048l-8.584-24l-8.576-24h53.856L429.96,228.004z M67.232,148.004h325.04
	c10.312,0,19.288,6.384,22.704,16h-56.112h-16.992h-45.76h-16h-48h-16h-48h-16h-48h-16H44.56
	C47.864,154.524,56.832,148.004,67.232,148.004z M152.112,180.004v48h-48v-48H152.112z M42.944,180.004h45.168v48H40.128
	L42.944,180.004z M67.008,304.724c-1.016,1.08-1.936,2.24-2.832,3.432c-0.568,0.752-1.152,1.488-1.664,2.28
	c-0.872,1.352-1.6,2.784-2.304,4.248c-0.36,0.744-0.784,1.448-1.096,2.216c-0.872,2.136-1.576,4.36-2.072,6.656
	c-0.032,0.144-0.096,0.28-0.128,0.424c0,0.008-0.008,0.016-0.008,0.024H40.112v-56h24v-16h-24v-8h48h16h48h16h48v80h-16.808
	c0-0.008-0.008-0.016-0.008-0.024c-0.032-0.144-0.096-0.28-0.128-0.424c-0.496-2.304-1.2-4.52-2.072-6.656
	c-0.312-0.768-0.736-1.472-1.096-2.216c-0.704-1.456-1.432-2.888-2.304-4.248c-0.512-0.792-1.096-1.528-1.664-2.28
	c-0.896-1.192-1.816-2.344-2.832-3.432c-0.672-0.712-1.368-1.376-2.088-2.04c-1.072-0.992-2.192-1.912-3.376-2.784
	c-0.784-0.584-1.568-1.144-2.4-1.664c-1.272-0.8-2.6-1.496-3.96-2.152c-0.848-0.408-1.672-0.84-2.552-1.192
	c-1.536-0.616-3.144-1.064-4.768-1.48c-0.792-0.208-1.544-0.48-2.36-0.64c-2.448-0.48-4.976-0.768-7.584-0.768
	c-2.496,0-4.912,0.296-7.288,0.736c-0.416,0.08-0.832,0.136-1.24,0.224c-2.24,0.488-4.408,1.168-6.496,2.016
	c-0.408,0.168-0.8,0.352-1.208,0.536c-2.104,0.936-4.136,2-6.024,3.272c-0.128,0.08-0.232,0.184-0.36,0.272
	c-1.824,1.256-3.52,2.688-5.112,4.216c-0.264,0.256-0.536,0.488-0.792,0.752c-1.24,1.264-2.424,2.584-3.488,4
	c-1.064-1.416-2.248-2.736-3.488-4c-0.256-0.256-0.528-0.496-0.792-0.752c-1.592-1.536-3.288-2.96-5.112-4.216
	c-0.12-0.088-0.232-0.184-0.36-0.272c-1.896-1.272-3.92-2.336-6.024-3.272c-0.4-0.184-0.8-0.368-1.208-0.536
	c-2.088-0.848-4.248-1.528-6.496-2.016c-0.408-0.088-0.832-0.152-1.24-0.224c-2.36-0.44-4.776-0.736-7.272-0.736
	c-2.608,0-5.136,0.288-7.6,0.768c-0.808,0.16-1.568,0.432-2.36,0.64c-1.624,0.424-3.232,0.872-4.768,1.48
	c-0.88,0.352-1.704,0.784-2.552,1.192c-1.36,0.656-2.688,1.352-3.96,2.152c-0.832,0.52-1.616,1.088-2.4,1.664
	c-1.176,0.872-2.296,1.792-3.376,2.784C68.376,303.348,67.68,304.012,67.008,304.724z M96.112,356.004c-13.232,0-24-10.768-24-24
	s10.768-24,24-24s24,10.768,24,24S109.344,356.004,96.112,356.004z M119.816,364.004c3.136-2.352,5.952-5.104,8.296-8.248
	c2.344,3.144,5.16,5.896,8.296,8.248H119.816z M160.112,356.004c-13.232,0-24-10.768-24-24s10.768-24,24-24s24,10.768,24,24
	S173.344,356.004,160.112,356.004z"/>
<rect x="208" y="364.004" width="32" height="16"/>
<rect x="480" y="364.004" width="32" height="16"/>
<g>
</g>
<g>
</g>
<g>
</g>
<g>
</g>
<g>
</g>
<g>
</g>
<g>
</g>
<g>
</g>
<g>
</g>
<g>
</g>
<g>
</g>
<g>
</g>
<g>
</g>
<g>
</g>
<g>
</g>
</svg>
